<mxfile host="Electron" agent="Mozilla/5.0 (Windows NT 10.0; Win64; x64) AppleWebKit/537.36 (KHTML, like Gecko) draw.io/26.0.16 Chrome/132.0.6834.196 Electron/34.2.0 Safari/537.36" version="26.0.16">
  <diagram name="Page-1" id="PG7HvGxUztlvNmhYp34K">
    <mxGraphModel dx="2344" dy="2161" grid="1" gridSize="10" guides="1" tooltips="1" connect="1" arrows="1" fold="1" page="1" pageScale="1" pageWidth="850" pageHeight="1100" math="0" shadow="0">
      <root>
        <mxCell id="0" />
        <mxCell id="1" parent="0" />
        <mxCell id="6NeYQy5s_Fg0ChDHObrt-53" value="" style="rounded=1;whiteSpace=wrap;html=1;strokeColor=#000000;dashed=1;dashPattern=12 12;" vertex="1" parent="1">
          <mxGeometry x="-380" width="870" height="990" as="geometry" />
        </mxCell>
        <mxCell id="6NeYQy5s_Fg0ChDHObrt-52" value="" style="rounded=1;whiteSpace=wrap;html=1;strokeColor=#3333FF;dashed=1;dashPattern=8 8;" vertex="1" parent="1">
          <mxGeometry x="-305" y="730" width="565" height="230" as="geometry" />
        </mxCell>
        <mxCell id="6NeYQy5s_Fg0ChDHObrt-38" value="" style="rounded=1;whiteSpace=wrap;html=1;strokeColor=#97D077;dashed=1;dashPattern=8 8;" vertex="1" parent="1">
          <mxGeometry x="-305" y="320" width="725" height="330" as="geometry" />
        </mxCell>
        <mxCell id="6NeYQy5s_Fg0ChDHObrt-21" value="" style="rounded=1;whiteSpace=wrap;html=1;strokeColor=#FF0000;dashed=1;dashPattern=8 8;" vertex="1" parent="1">
          <mxGeometry x="-270" y="20" width="670" height="250" as="geometry" />
        </mxCell>
        <mxCell id="6NeYQy5s_Fg0ChDHObrt-1" value="Store frame in Object Storage" style="rounded=1;whiteSpace=wrap;html=1;" vertex="1" parent="1">
          <mxGeometry x="-20" y="80" width="120" height="60" as="geometry" />
        </mxCell>
        <mxCell id="6NeYQy5s_Fg0ChDHObrt-2" value="Store metadata (frame_url, camera_id, bbox, ...) in Database" style="rounded=1;whiteSpace=wrap;html=1;" vertex="1" parent="1">
          <mxGeometry x="200" y="80" width="120" height="60" as="geometry" />
        </mxCell>
        <mxCell id="6NeYQy5s_Fg0ChDHObrt-3" value="" style="shape=image;verticalLabelPosition=bottom;labelBackgroundColor=default;verticalAlign=top;aspect=fixed;imageAspect=0;image=https://juststickers.in/wp-content/uploads/2019/07/apache-kafka.png;" vertex="1" parent="1">
          <mxGeometry x="-140" y="-130" width="128" height="128" as="geometry" />
        </mxCell>
        <mxCell id="6NeYQy5s_Fg0ChDHObrt-4" value="" style="shape=image;verticalLabelPosition=bottom;labelBackgroundColor=default;verticalAlign=top;aspect=fixed;imageAspect=0;image=https://stackjava.com/wp-content/uploads/2020/05/minio-logo.jpg;" vertex="1" parent="1">
          <mxGeometry x="12.5" y="184.18" width="55" height="55" as="geometry" />
        </mxCell>
        <mxCell id="6NeYQy5s_Fg0ChDHObrt-6" value="" style="shape=image;verticalLabelPosition=bottom;labelBackgroundColor=default;verticalAlign=top;aspect=fixed;imageAspect=0;image=https://img.freepik.com/premium-vector/cctv-camera-icon-logo-vector-design-template_827767-1414.jpg;" vertex="1" parent="1">
          <mxGeometry x="-489" y="-130" width="128" height="128" as="geometry" />
        </mxCell>
        <mxCell id="6NeYQy5s_Fg0ChDHObrt-7" value="" style="endArrow=classic;html=1;rounded=0;exitX=1;exitY=0.5;exitDx=0;exitDy=0;entryX=0;entryY=0.5;entryDx=0;entryDy=0;" edge="1" parent="1" source="6NeYQy5s_Fg0ChDHObrt-6" target="6NeYQy5s_Fg0ChDHObrt-3">
          <mxGeometry width="50" height="50" relative="1" as="geometry">
            <mxPoint x="-280" y="10" as="sourcePoint" />
            <mxPoint x="-230" y="-40" as="targetPoint" />
          </mxGeometry>
        </mxCell>
        <mxCell id="6NeYQy5s_Fg0ChDHObrt-8" value="Produce data" style="text;html=1;align=center;verticalAlign=middle;whiteSpace=wrap;rounded=0;" vertex="1" parent="1">
          <mxGeometry x="-280" y="-100" width="60" height="30" as="geometry" />
        </mxCell>
        <mxCell id="6NeYQy5s_Fg0ChDHObrt-9" value="Sending event data to Topic&lt;br&gt;Event data inlcude frame and metadata" style="text;html=1;align=center;verticalAlign=middle;whiteSpace=wrap;rounded=0;" vertex="1" parent="1">
          <mxGeometry x="-330" y="-50" width="160" height="40" as="geometry" />
        </mxCell>
        <mxCell id="6NeYQy5s_Fg0ChDHObrt-10" value="" style="shape=actor;whiteSpace=wrap;html=1;" vertex="1" parent="1">
          <mxGeometry x="-150" y="70" width="40" height="60" as="geometry" />
        </mxCell>
        <mxCell id="6NeYQy5s_Fg0ChDHObrt-11" value="" style="endArrow=classic;html=1;rounded=0;exitX=0.57;exitY=-0.042;exitDx=0;exitDy=0;entryX=0.098;entryY=0.984;entryDx=0;entryDy=0;entryPerimeter=0;exitPerimeter=0;" edge="1" parent="1" source="6NeYQy5s_Fg0ChDHObrt-10" target="6NeYQy5s_Fg0ChDHObrt-3">
          <mxGeometry width="50" height="50" relative="1" as="geometry">
            <mxPoint x="-90" y="50" as="sourcePoint" />
            <mxPoint x="-40" as="targetPoint" />
          </mxGeometry>
        </mxCell>
        <mxCell id="6NeYQy5s_Fg0ChDHObrt-12" value="Consume to Topic" style="text;html=1;align=center;verticalAlign=middle;whiteSpace=wrap;rounded=0;" vertex="1" parent="1">
          <mxGeometry x="-200" y="30" width="60" height="30" as="geometry" />
        </mxCell>
        <mxCell id="6NeYQy5s_Fg0ChDHObrt-13" value="" style="shape=image;verticalLabelPosition=bottom;labelBackgroundColor=default;verticalAlign=top;aspect=fixed;imageAspect=0;image=data:image/png,iVBORw0KGgoAAAANSUhEUgAAAN0AAADkCAMAAAArb9FNAAAAwFBMVEX///8zZ5EAAAAuZI8mYI0qYo4XWokrY44fXYslYIwSWIggXov09PQZW4n8/Pzs8PTX19dsbGyZmZl7e3tHR0fk6u/t7e3Ly8tUfJ/i4uIwMDC5ubm/v7+csMRniajc4+qQp72rq6u4xtSNjY2ioqJAQECsvc0+bpZcXFyamprT09NlZWW0tLQ2NjZYf6F8mLMdHR3I096EhIRUVFQSEhKEnrdxkK20w9ImJiaXrMHR2uMbGxsASoBHc5nEz9sQEBA3BWk7AAAZ6UlEQVR4nNVdaWOiPBDWIhRB8Ww96m1r7Wlba6996/7/f/UKmckBAZLYw30+bVcImWQyVyaTQuHgEPQ6t1dPjWW7//D36Ojo+aHfXjbm54Pr09/u2X4Irqet9lEG7lrT+m93Mg2n9cHteXM+nzeb59OzQb1X4X7s3bbesghjaDevv7xrlfrZ+VNjfdF/eP67Y5a79k1rPh3UK/lvhi93rm76sp4+tFtXg15l0FIjjKIx+DLCgk5zmcEtjatB5oroPEkJ2xeNzheQVm9eqHyrPZeT2Gl8B2WAKzXOSUNv/kfjY8+tW5HCytyo02/Lp6vb3bI8rQQhTnv1zm5V3MiWZctcjg4y5Zccf546AQ6N/rS9Nc47Gf3tDeaJLjV6RrRNdaZNwHK66+GphLaLZWvePD8/v5o/tZYXf8Uf182OEqNdx5dKS58/Bwnalk/TUIjDzFROe53B+VwuCXfL8En8u9+6rQeJj5x2pq278OdnNuMqqNyuhdav9GjriQzQzhpW2sVUNAaZo1s/N9DQp1f88D/oaMBzsW8qw1qfpqyy5ddpphg6/AS2VN+qcHx9cavxud5tgsK5oUwLauPH7etiuMNiMdt+nEhHuHfDvvRHjQGuuXHXZ5neFTc2TZ3FBDjZDlfdYtVxXNf1S6VyueT7btXxrO5m8ZHg8B43f+cKrU/p021DgxXXfEtKW1CpVNKJrr3855VsqyiBZZeq3uVmG6Oww9bfTW7XmvTZ5HoJxh+zxfB9ssNw8bpjl1RhUbltxzklGL9OXj6LVc9xHM/zi5+jzXA7TtJZ23i2jDgk0fXuF7WULvdzdAM1Lhqx7m7fR/aOW3y/XC7bdrlUcnfs4vjd1XB7kt1kiPGwu3vZ5ifF2rXiOtXPzawWe7i28qSTR9/0vfsZ/0KPiexM1U6H4Uzs26fnltLYxXWc7maWQeLJe9GRvx014HuXk8fYYHSdLPJ2b7n+Oz8ozOLLUA23kiEIFpdeat/wYyXfKb0sxrI2P+69UvbbxaJddVcfwluv1Qz2jFByNhx9HUpequeA0vKNse9uFfg5pNEu7ihczWKc/9F11F63q8Uh/27wkjN9u1e8CVu2lX4OeRVcm+ydd6+sRhqjsDtkQ1p5yV5BIkreiufvWf64lEqv7PllNnmgqN4ocR/HuTyVhHtPG9y6eewVg+29cPTVum7uG9V7NpbUv5dpsiv4jfLHxtOnrWh3aYMrg/dtb8Pxp0IPbI9NH5UtSQOpFyM86PoGxFmXOPOVT4OJD7tbXbBOzRQGyHlJkPecUKPgFUyRLS41uYrARUapWUbvR218MuE7Lucv3PIl5U4krx0jbkD+e4kjX9QQBwweyvUTVUkrg+W9037VLo/zn3epOsG19yRSJy66wGzmfOxVzd2DuLChTzodwadCV7wtPo6SUxCcU5Ev742Is1CiGM4835RD+1voKmglj5pmqPeSU9eHv4YmAmX3CRzwz3xuym9sQjt3r0Meau0mI+5WmM6xiSrYSYMhtLbSMwHSmhux2dNhTjTKmNwk03kBf10a8ZV1Ca/Pcm0oNZQ/aQdVmMFDSdsQV1mhLkzdIt9EkLYOgqtmNvMSHBeR1QOVhYzaqCIuM5CjD9CSGXHHyEhmEkkK65iqT4VOUeYBtYCODvkL4hJDMxvDAwvxtWr0ekqHbSRPRRaUXgRWhCjnQNB1hgYUtByYvZ4Gy0Kz81VhNePSEwyWBm+mvBquOpi6yddSxxmum3w1Za8E1uRJhWBD10hg4qr7OpFCe0ydjs/8nrnkyTPOIbjm9cOJWfdQYG6+TqQgcDUVavm8WSXdAH8nijQ3eS4dGmli61O5A/qoovWa7w+VFjw3zsN/rnnLxYwxfXAhJ19ipcThYcjsJY8zcOGRjcwGI/R6n3XjELYOvmPqwuZBLwR51KEdv6S2V49fdlsjiYlD9mpmfecCGb+wzRs+mxeaoXlCLOi7faSC86Es1cxAHcdRTv888ticqgTyr9Y+/YMRG38TYxaZns4TWx5hwStK3ZK3qI2Wnb35TpkSwSrC5OW4nrBCzyl1fzj/YGxkJLog076LL0P4EyAv2z0TqQtQZJ7uIVQc8t2P72PMIjP1sgVLnLpT3iYz0uX26NsZs8gFbTI1slMRObPOU2ckMv2FCs/sjepMgUXiUmXA22Ejkw46YyVxtj9g8u4zOhnXCLe8+2OkEErk3dk3qXIKf5g/eVXyCHWBznl1Z/JRXHarr3cPYnCD3DmA4APxWN9wEufkf02GH+1y814rfwkmL12yW7C9tkY7c855CEZWMPhUX++3JuHDykudu2PwBd9wuREWJRGjigl1IITNVKUeXGCT1MBWeUIeOMLl1uAMMTOxRxp8/+KASta3UvkElBNENJsx6kx2S1/2UCa6cB6zlQLYhODUTZE6kux2YjB3uNR/ZOpQPqc5kg4x1yCE2dmfM/2Z+ZJVg2WHeU3eDo7zH7EjKylMBjGCc2o770sdWCqiij0u+a7jhJlX8ow2ddiOfz95fRyf1HY4+diCnyc3NjHWzuKZ+8pMsMqZpWL7nv3yPtt16GT8+Lq5zE81SoXl+hMxBwnxLrXYUSGQHIBnSh3oOwOp4ghC2nbsVSytrTa0DW0091JIduOxlTaJMoBMXZjQyNsqBts/yAyhHWa57kY61EPFdCoR3lDWFsGH1M12yQ4lOHVzSh3kCOh3wgIpdm/ZzmfqUNdUtvZjDZelSXWAR+k8wCqB3ddw6+CczmLBxEfAYF/RG8lXCEBl71sgzoqnbQqYSamDbQTw7sL9uzM0OEPkBdSSKEMsrps10tEDek07PHHB+HH2GmV/j2HDS2r3oTa8YQ55Zz/fvMTlPfGojB+320eO5IqW6OQSOj4ml17V9UPs1N5/pEmpM1kWhEo0YUIoeqEt3VzJWhsvXopO1Xdd13FHNG02N47Mwab5DttLx7btEs0ETyggDuCtnFIbmlqcZJNZvlgzqdsWRIwntlNiKQq200Uey4oYxOBgIuPIs8rO52o4nNyTwfEypgF+AzvslptHEs/UNzRdIaU5WOyGGsjyI2PluHhcBvLUI4IoiAvdklXFbNZx1DAIDplHgrsNc36+LjhjRT8WXeUkZeXdpclv7mi7M57Gry9OieYiKEtksF0Lkx0rMemyOmbqVSYg0Lm74CVJg3GpQdSOo27osAHFL+2mc+LgHsdCVbB4RDLubOUyp9Evi2xWZf4WsFFAiIM42DmvEl50M7wcFItbi18KvEBf+BDuUeb7SzoaFkunGoYyAbcsLtPHBJQAMOOAn0jtYDRsbgUvIk/7vGr3UbAqtonGcCiGXNzbIhkdGBmWrCAMVsOygxzhHnWGCgZC0yfs8BH7nMVyv3eeB3ZXkTPQQiBiZBRyxwkk8MPnZFyAJvQdP1t7Ck3QCIn36J5NRFOJspoKwEIAF9V2rPsiSmJQFbJJAAkAGm6NXyfEQt6RrjMGTJeMyDgbJM6ny1Bu2ScAOQbMl2YipJo+TBAOHAjLDj28BuN1HcA4SzzDUnExro2HUfY3zHBawCAGN04dQ7pCiOUZ0bM+RGhChp/uNhVweyCblVLVc8r8UwW1dYecmaTOTlcIKLmOxGUn5hrp7nWgYss2v2mvlKx0HIvk4rLhaxIGg6AxbNixA3awDknCiq5YQQWU9xx5Sh4OSWszqdRwHSQ7iUIazthxJ+z+8OtQl7qVEnUwsmqcYaXOtL9NW5GoCEEfcMdtbvYQK6jKcky4KsQF1YQmZIgktwvgWIXEHod8+lPOtwPsI1ZwReVYyGAXKwZMYaaTWg0GKfkDGirTmD4oUMvMaC8HuSgnew4FhdrcwRQlFQgo8ySDI2O2Y/qgQMUKsVY0d0oUqaOCQonvcSwSDAFWQdJ3BcaMp7NHeOCtFXXKQqCsylmu+JjaThE+nRCxwLIJ6vAFYMy5QF2L94j0nCBV6jK8TglgtyMhPdKow/xQCWNSkskfyj4m6bYaZ6IVqCizMJ4RH+g0zoSICkjMPwJxqOAJyXq5YqrUYbRHbehwmcanOkWqoFqCna1mQQT5X6jHoUWdokbAUVc9D5CSEwmRgMcYdVUIzPVljIn8CrEVLX2uqM1x1FX1DYZrYs0Cx8aJhrEAP/wtRhx46/DfWvv7qnamk6aHs5uNmSu+1JtES36eVOURBH2uFX1Aqz1PFsJkfKi2DVIoptDlVjTGdsH5SZzHBi1Iio5o7VGmeysikDrVRY0xblE/SccSrTCYovh55QIm54AW1DmTkO6T7Ecd6lExHIWrXOgh+q1LQTbyIAWyILFdx5CGlZDrFupyJs2lFYQxBtOFGUUmPuK1tgA4F0SUks7CgxBcrpLUlCqMCcV9yHJy/FGmgLKTFac65Q1pnWS4VJ8kTl2adZ/eMuQryv6TN1Zwkp8JCdJiTM+GCy9rP03ynMbpPkx5E8yupNpEc6KTouwitHjXQeNwKOw45UboPcXneEDX+M7A8uXUOZ5jAZkyLchwxms8ZcmmYfuT5yYaW9doX/GTl1Dn2AFYWkeJ6hz8r1BmS1njZe04Cc+hf6dBHT3bxHFzKb5LApFdtFPSCt4Rjfek2YmsHSfZc1opI1Xwg7gD8ChJKbeCiYl2SlqBN6LxHpLMkAk0VfImG+MeWvFEesCC24ZfiaOJu5fgofKxMAED3khTjtn6qUFxESANNGPBTmLy7Jg7CU48xE7EMmg8AkHmqH4fNzTy5s4xOrxIVx77HzHQgQw/SLdTAGQzHVKqVNNyMrZrhG4Cj+nuweDk0cIY2BBIMax5AokAGTVQr3jyVS0mRepweeqeGaaTh9JIpA6nrp6pDvhHyGaJqjEmbpOmAqxM/fMOTuxok0gdGmGgyWPFjEQc8caYYop6Cba4c6iz9TiCgZ6ZhMofwrpDAYrFwjLrrNLDMyEUdQJ+IFuPoRlvcAAOrU2oYSA4eDh1kNOXXRz0jB8BxYA7ckr2ESdMajE5BwUJBYVVpMD5MA6OLBph2aVaK4JOULQqMJsha6pRNhgdHcX0DqJSy5z1gAITKv2sC9m44J9S9BPAJck8jI1xcLMzbJi2FIXqXLY9GZ+6vJLRV7xcVTw87iukEUEahknGfJFREdmWMJihExObOkmwSERPMGf0vp3h2qBcNawGRU/Sh9zPFkJpInQ6veYpBdlAhy1mRbsCvpdRdwhZy7ROAs3KsqjI3PE4HqS8ybGfGVh5hIIya6JvnGqG4OyaH0enxrTP1gEegkUzRaFQO2SuDLAJFWDnH9M6j+pAP18egTI38DyWCgldXiuuuhBHBqyJsauUyUONaFhSKAJmuE+AMRcljEpgWTulsuQtA9ZECzll5WGkeJ+KRzhCNVwFtJTTnZquE4YC5I9iGjE6/xOpTASps1/ZHEc4y3HioRjFAteKt3cIrKmo0HGBS4UiBkL0TzoIrYz4Tm6cldDdeNn1VAisqbpUYK++UJNQgKO8ZxEIj8tEDjxc6lh4XfUSho4gNRU1FB7slSw9DDfuW52EurGFsEQ3+A24LyImcGSBPA/JHarWBT218xGv7Y0iZ+8qalVaFrriIKV4k4b6HRNwFwwcCFAd8SotlVgWkzDQGNz/zG8V0/Y2cNCJlpWXB9elqAtvqGbmMMapCOXH0YiSH5fTAq3POcaEa7jbSdwXCSqZN0AQWxP2KZU3FMpMqC24IyXo+3zFUftq7CwcXnyDNlhQn7aID/fcSI1rNgUNovxtf0VbqK3oMWUwoL/mMLonKD0UKcvCab0znS8hXouIZ+QAwBmE+JK6mnIZeYXau+2UbcawhjU547B58ZFxZ12EB7maaPMqT2PUuQLPhfC2j9FlFSuSf1ENiGNWv5+7zCIVUgMGgkeQOqAcLbDvk03B1TjBf66vUE0+H+6GNp1PXErcnfwE7qBq9brjT2lbpI3Fdvb+6eyr8iznc4i8qXT5nNRAA5UHToVa1hgrL5uKk43ONR5JuF3OGjt7SBKDl+dVzvAeQBlv9gTKH1WUAisNfL1Mt9drn3vUU/NiCqF+3sBrgPrL8GpO/kcQOVLBCXIFOqxi/9JTuOHIZNyaNjImz3uUNhgEcp4RVpeIgUC5gp1BNRHGFltnKWb7vWH1/bgqz4MQIZJSjr/l1kin44oaNsK6NU+mbOXWZpVD9O8UcJZBHRg5YGzm1WtlKyJ+qyeNdrDr67ZGNSwp5xdmK2eiQN00g7pAZ/JoweNC/GJYtPZqn573gl6ESVFjGtFceK5dLFuvaQIay0CgWJE/BUoBOCtzvJmBGbeNMHekZtvhRThY/9LAKsOklCF4x767il1rFtQ+Fpv7/5CLYP2nxAHh1+f88WYmSvyqZGw6IEIX9xlNLiiAjTpu1+3Yd9zPl81k+P4+Wb10rbCEklekZjZEOdOcdvF+iPQwOq0DUIhfy0tvHML7EnCf0cDohOpCMZPeOg7v4SvZ5Fo9y2NmGsZb0qKcKNrhz1Rr08fldBsjjt7DNsEu4UDo37+gsAVqVbkrkvByyfQANUwe6LwgrToZNhk32amVwNVW90wL/sVTcCS0XXKlQuh9rukBapw8mAL5TSr0HpeeQNoNc435oCG4svrU0TMPctJKnlBQid4SnHUFLAgJtLNlexwOhmk5Lb4WLo6vWNxwQ4qmfo1Uevo0MXdW2d05DrzPXqG3DN9lEEd7DJ0NkhYi0wVEiz+3bmMWtHDLFFbq0C/mjtS9V6tueSdDLGsnScp+1XHvJ1uxuNOAjXP2/aEgeDDkFK/kwOmCSP42k76BcEMYdaz1Y+42lYbj1/fVaHQ/ellNhrOPRNWqCqdy8+LT8BgqjYVInlVEkR/ysOzC4hl/1Zhl41jqnYALUXqXtC7BFaPtb27wHWcZRc+ElywWveluJ6IuJJbRY7cqPE5tC/2K276Sg8AuGZZ3KA68wxj/fmezZ6FhFY5BP/HmybBYFU5J+Mxw0qcuURkqiYpwrbfShdmoFfDKvx1zQpdLRd5dFfVKbbu5dEQKSpfcEtHX5k5OJbZgcMPTJrlDWQqcbGqvnXSdsmWXPSotQ8n6wF4YL1ZFL3FTqLfiGzWgLqPoXXB9Jd40f7TMuWyZAXmTCY2PyWg0ZGwWhjZwW3c2cqt+Ui26RTFooFbrQaAOiq83buus58Hp9Vmz0T+KQ+OyeKqmUwLzEfUYvXjsJq8stp1iXCQYlOInL4J90b+4uEgSBUgJsKeAXuUuvaMeppYKqPAq7KpfihSudVz2HXvFzVtgSB0a0es0kiielJkSQGVR0lcKLiQ/BePZcDW673ZHL++z2LYGUKcbWjmGZZs6YdgNXdoKnFPajilIzi3Iz9GKHjekDnMYM0nLCDNmglk3PFOfCkI4v+lwkAypEwt4y9AaqG8ux8Hxe6sTNVMZxGMojezmSQDOkDqxgHcM63la6FQVwjQ93N1JP9NM53qM6xtSBwcYyUpYtu/6b/27i3Xj6fysbrDSkojHTDhwIcwbKX/UqTdpSh1kFhDTwpwF0zGIE4U4E4OY/db0mo1npT4VdqIMqXP4If4G4kTPiSESo0k19Nxfr9cXyT0oM+os/jaOP6k93A+dxHJ7A0nZTJCRAjPqMGYUmZOZ4YS9cC2w2ZIpuV5bTk0KdbrV5sAzj5pQyjI1Reeq0X57u7hpdsTV3YlvIWRQp2tFwxEEsrexjPfoZ9B7Sqeqfx7w1Gl6QELx9V+irhDu9cpEz/o8DCdF/yTzrevfge9K7HnVTMzvwWln+nTT7j/8fX7rrxvNM+GuY6BO94QhUXcklK8UU/hxRF0jmlCXOjiJQiSzeirmT+KBUacZ8RPUnaZ3+lOIfDNi7mpGay1e3enkYv4g2ow6zUi7zas7najJD2LNqNPcJREvF1bxk38eka4gAlSTOlB34N0pnRn5cdywrmke7RW8O+Xc/J9Fg7GVJnVw2CErAeXX8cSoUy/eEgFqMmWlRv065kzg6d1XjMnHJPrxfQ7QXogsDZOL2nDPnAQzs4+U/xqmTBXrXWUmXj6VWevg9xCF/EgJDb30fTgLCpttiQKEh4EBZyRqHaKEsjPXh6zMSe/AfdGiTvB/VE8R/jR6nOupQ5zo/3xLNPMLcMqFDXTOnaNCEOqHHB44baWT5IeJOHcHEHfIQNg5SPfUKWYhKoSMukW/iztmR+kENMXbCA9UZIKDp1UzOoIjeAhfsuXzHWiZOXiQ7kA8hO/aRNgf0f47yRfUcBJQZJLt7cMM94WIjBWSF6JxRwEGVUggX5p3cRDocTJP3dDEiiOH7JiHCDjWUq8bANuu5CB1MtnucBDGa2F/SvkGBozUkqSZw4xDEzSYwlOOtaMuXx9wPIxgylaOstCEMyTBIcdUCHossqJaEw4PNw0OnjGJ3AOxorhBidWalofs2wFajLvUNB7m9pEUqm/dMd8fHY41ldwEPG9KPNfD3B9hCPsIebgqk1cdcu8d/f21biuCM6QLm9yV52PBHTJ1h7lxx6HDuddBHnUunuOtHL46IOBFX+LgTWzN0cMx639i1RVgqwQzToYZtnTJpunU039BYEboCeGD95TZs3yHnfu5PnTvgENbWEKvsqoWYYo/i1rCjuuBBthjICYV3cg5uRerkhz7njXhL2iGElJqVfp+H/3YVHys/Oj8gl1yq07xZSEeIodyBn8PNAKdAMS2+JMp49lwMpkMX5NnBfGswD+x6CKk30gUB01WPmS3LgbV0nvX7X+QODYl8ZMpAs5YlvK/w5YRaJbqPEVYdLiCEet/RaBQsLMbTwmu602Fkx3/hp4TwRPQwgODp/VBM5aam8m8h4uMFGqGt4Pd8MnDWS5t7X+Wth0qN5m0zQ87QpSPeto5z/78n9JwaejN4yWsju6eBv+mJJHidNBstB/+Hj2/rRvN2/rXK7f/AREaECqxGAxtAAAAAElFTkSuQmCC;" vertex="1" parent="1">
          <mxGeometry x="232.25" y="181.92000000000002" width="55.5" height="57.26" as="geometry" />
        </mxCell>
        <mxCell id="6NeYQy5s_Fg0ChDHObrt-14" value="" style="endArrow=classic;html=1;rounded=0;exitX=0.75;exitY=1;exitDx=0;exitDy=0;entryX=0;entryY=0.5;entryDx=0;entryDy=0;" edge="1" parent="1" source="6NeYQy5s_Fg0ChDHObrt-3" target="6NeYQy5s_Fg0ChDHObrt-1">
          <mxGeometry width="50" height="50" relative="1" as="geometry">
            <mxPoint x="60" y="90" as="sourcePoint" />
            <mxPoint x="110" y="40" as="targetPoint" />
            <Array as="points">
              <mxPoint x="-44" y="110" />
            </Array>
          </mxGeometry>
        </mxCell>
        <mxCell id="6NeYQy5s_Fg0ChDHObrt-15" value="" style="endArrow=classic;html=1;rounded=0;exitX=0.5;exitY=1;exitDx=0;exitDy=0;entryX=0.5;entryY=0;entryDx=0;entryDy=0;" edge="1" parent="1" source="6NeYQy5s_Fg0ChDHObrt-1" target="6NeYQy5s_Fg0ChDHObrt-4">
          <mxGeometry width="50" height="50" relative="1" as="geometry">
            <mxPoint x="60" y="130" as="sourcePoint" />
            <mxPoint x="110" y="80" as="targetPoint" />
          </mxGeometry>
        </mxCell>
        <mxCell id="6NeYQy5s_Fg0ChDHObrt-16" value="" style="endArrow=classic;html=1;rounded=0;entryX=0;entryY=0.5;entryDx=0;entryDy=0;exitX=1;exitY=0.5;exitDx=0;exitDy=0;" edge="1" parent="1" source="6NeYQy5s_Fg0ChDHObrt-1" target="6NeYQy5s_Fg0ChDHObrt-2">
          <mxGeometry width="50" height="50" relative="1" as="geometry">
            <mxPoint x="60" y="130" as="sourcePoint" />
            <mxPoint x="110" y="80" as="targetPoint" />
          </mxGeometry>
        </mxCell>
        <mxCell id="6NeYQy5s_Fg0ChDHObrt-17" value="" style="endArrow=classic;html=1;rounded=0;exitX=0.5;exitY=1;exitDx=0;exitDy=0;entryX=0.5;entryY=0;entryDx=0;entryDy=0;" edge="1" parent="1" source="6NeYQy5s_Fg0ChDHObrt-2" target="6NeYQy5s_Fg0ChDHObrt-13">
          <mxGeometry width="50" height="50" relative="1" as="geometry">
            <mxPoint x="60" y="130" as="sourcePoint" />
            <mxPoint x="110" y="80" as="targetPoint" />
          </mxGeometry>
        </mxCell>
        <mxCell id="6NeYQy5s_Fg0ChDHObrt-18" value="Central Storage" style="shape=cylinder3;whiteSpace=wrap;html=1;boundedLbl=1;backgroundOutline=1;size=15;" vertex="1" parent="1">
          <mxGeometry x="-40" y="520" width="140" height="120" as="geometry" />
        </mxCell>
        <mxCell id="6NeYQy5s_Fg0ChDHObrt-22" value="Active Learning" style="rounded=1;whiteSpace=wrap;html=1;" vertex="1" parent="1">
          <mxGeometry x="-40" y="350" width="120" height="60" as="geometry" />
        </mxCell>
        <mxCell id="6NeYQy5s_Fg0ChDHObrt-25" value="Produce data" style="rounded=1;whiteSpace=wrap;html=1;" vertex="1" parent="1">
          <mxGeometry x="-270" y="350" width="120" height="60" as="geometry" />
        </mxCell>
        <mxCell id="6NeYQy5s_Fg0ChDHObrt-26" value="" style="shape=image;verticalLabelPosition=bottom;labelBackgroundColor=default;verticalAlign=top;aspect=fixed;imageAspect=0;image=https://stackjava.com/wp-content/uploads/2020/05/minio-logo.jpg;" vertex="1" parent="1">
          <mxGeometry x="-270" y="480" width="55" height="55" as="geometry" />
        </mxCell>
        <mxCell id="6NeYQy5s_Fg0ChDHObrt-27" value="" style="shape=image;verticalLabelPosition=bottom;labelBackgroundColor=default;verticalAlign=top;aspect=fixed;imageAspect=0;image=data:image/png,iVBORw0KGgoAAAANSUhEUgAAAN0AAADkCAMAAAArb9FNAAAAwFBMVEX///8zZ5EAAAAuZI8mYI0qYo4XWokrY44fXYslYIwSWIggXov09PQZW4n8/Pzs8PTX19dsbGyZmZl7e3tHR0fk6u/t7e3Ly8tUfJ/i4uIwMDC5ubm/v7+csMRniajc4+qQp72rq6u4xtSNjY2ioqJAQECsvc0+bpZcXFyamprT09NlZWW0tLQ2NjZYf6F8mLMdHR3I096EhIRUVFQSEhKEnrdxkK20w9ImJiaXrMHR2uMbGxsASoBHc5nEz9sQEBA3BWk7AAAZ6UlEQVR4nNVdaWOiPBDWIhRB8Ww96m1r7Wlba6996/7/f/UKmckBAZLYw30+bVcImWQyVyaTQuHgEPQ6t1dPjWW7//D36Ojo+aHfXjbm54Pr09/u2X4Irqet9lEG7lrT+m93Mg2n9cHteXM+nzeb59OzQb1X4X7s3bbesghjaDevv7xrlfrZ+VNjfdF/eP67Y5a79k1rPh3UK/lvhi93rm76sp4+tFtXg15l0FIjjKIx+DLCgk5zmcEtjatB5oroPEkJ2xeNzheQVm9eqHyrPZeT2Gl8B2WAKzXOSUNv/kfjY8+tW5HCytyo02/Lp6vb3bI8rQQhTnv1zm5V3MiWZctcjg4y5Zccf546AQ6N/rS9Nc47Gf3tDeaJLjV6RrRNdaZNwHK66+GphLaLZWvePD8/v5o/tZYXf8Uf182OEqNdx5dKS58/Bwnalk/TUIjDzFROe53B+VwuCXfL8En8u9+6rQeJj5x2pq278OdnNuMqqNyuhdav9GjriQzQzhpW2sVUNAaZo1s/N9DQp1f88D/oaMBzsW8qw1qfpqyy5ddpphg6/AS2VN+qcHx9cavxud5tgsK5oUwLauPH7etiuMNiMdt+nEhHuHfDvvRHjQGuuXHXZ5neFTc2TZ3FBDjZDlfdYtVxXNf1S6VyueT7btXxrO5m8ZHg8B43f+cKrU/p021DgxXXfEtKW1CpVNKJrr3855VsqyiBZZeq3uVmG6Oww9bfTW7XmvTZ5HoJxh+zxfB9ssNw8bpjl1RhUbltxzklGL9OXj6LVc9xHM/zi5+jzXA7TtJZ23i2jDgk0fXuF7WULvdzdAM1Lhqx7m7fR/aOW3y/XC7bdrlUcnfs4vjd1XB7kt1kiPGwu3vZ5ifF2rXiOtXPzawWe7i28qSTR9/0vfsZ/0KPiexM1U6H4Uzs26fnltLYxXWc7maWQeLJe9GRvx014HuXk8fYYHSdLPJ2b7n+Oz8ozOLLUA23kiEIFpdeat/wYyXfKb0sxrI2P+69UvbbxaJddVcfwluv1Qz2jFByNhx9HUpequeA0vKNse9uFfg5pNEu7ihczWKc/9F11F63q8Uh/27wkjN9u1e8CVu2lX4OeRVcm+ydd6+sRhqjsDtkQ1p5yV5BIkreiufvWf64lEqv7PllNnmgqN4ocR/HuTyVhHtPG9y6eewVg+29cPTVum7uG9V7NpbUv5dpsiv4jfLHxtOnrWh3aYMrg/dtb8Pxp0IPbI9NH5UtSQOpFyM86PoGxFmXOPOVT4OJD7tbXbBOzRQGyHlJkPecUKPgFUyRLS41uYrARUapWUbvR218MuE7Lucv3PIl5U4krx0jbkD+e4kjX9QQBwweyvUTVUkrg+W9037VLo/zn3epOsG19yRSJy66wGzmfOxVzd2DuLChTzodwadCV7wtPo6SUxCcU5Ev742Is1CiGM4835RD+1voKmglj5pmqPeSU9eHv4YmAmX3CRzwz3xuym9sQjt3r0Meau0mI+5WmM6xiSrYSYMhtLbSMwHSmhux2dNhTjTKmNwk03kBf10a8ZV1Ca/Pcm0oNZQ/aQdVmMFDSdsQV1mhLkzdIt9EkLYOgqtmNvMSHBeR1QOVhYzaqCIuM5CjD9CSGXHHyEhmEkkK65iqT4VOUeYBtYCODvkL4hJDMxvDAwvxtWr0ekqHbSRPRRaUXgRWhCjnQNB1hgYUtByYvZ4Gy0Kz81VhNePSEwyWBm+mvBquOpi6yddSxxmum3w1Za8E1uRJhWBD10hg4qr7OpFCe0ydjs/8nrnkyTPOIbjm9cOJWfdQYG6+TqQgcDUVavm8WSXdAH8nijQ3eS4dGmli61O5A/qoovWa7w+VFjw3zsN/rnnLxYwxfXAhJ19ipcThYcjsJY8zcOGRjcwGI/R6n3XjELYOvmPqwuZBLwR51KEdv6S2V49fdlsjiYlD9mpmfecCGb+wzRs+mxeaoXlCLOi7faSC86Es1cxAHcdRTv888ticqgTyr9Y+/YMRG38TYxaZns4TWx5hwStK3ZK3qI2Wnb35TpkSwSrC5OW4nrBCzyl1fzj/YGxkJLog076LL0P4EyAv2z0TqQtQZJ7uIVQc8t2P72PMIjP1sgVLnLpT3iYz0uX26NsZs8gFbTI1slMRObPOU2ckMv2FCs/sjepMgUXiUmXA22Ejkw46YyVxtj9g8u4zOhnXCLe8+2OkEErk3dk3qXIKf5g/eVXyCHWBznl1Z/JRXHarr3cPYnCD3DmA4APxWN9wEufkf02GH+1y814rfwkmL12yW7C9tkY7c855CEZWMPhUX++3JuHDykudu2PwBd9wuREWJRGjigl1IITNVKUeXGCT1MBWeUIeOMLl1uAMMTOxRxp8/+KASta3UvkElBNENJsx6kx2S1/2UCa6cB6zlQLYhODUTZE6kux2YjB3uNR/ZOpQPqc5kg4x1yCE2dmfM/2Z+ZJVg2WHeU3eDo7zH7EjKylMBjGCc2o770sdWCqiij0u+a7jhJlX8ow2ddiOfz95fRyf1HY4+diCnyc3NjHWzuKZ+8pMsMqZpWL7nv3yPtt16GT8+Lq5zE81SoXl+hMxBwnxLrXYUSGQHIBnSh3oOwOp4ghC2nbsVSytrTa0DW0091JIduOxlTaJMoBMXZjQyNsqBts/yAyhHWa57kY61EPFdCoR3lDWFsGH1M12yQ4lOHVzSh3kCOh3wgIpdm/ZzmfqUNdUtvZjDZelSXWAR+k8wCqB3ddw6+CczmLBxEfAYF/RG8lXCEBl71sgzoqnbQqYSamDbQTw7sL9uzM0OEPkBdSSKEMsrps10tEDek07PHHB+HH2GmV/j2HDS2r3oTa8YQ55Zz/fvMTlPfGojB+320eO5IqW6OQSOj4ml17V9UPs1N5/pEmpM1kWhEo0YUIoeqEt3VzJWhsvXopO1Xdd13FHNG02N47Mwab5DttLx7btEs0ETyggDuCtnFIbmlqcZJNZvlgzqdsWRIwntlNiKQq200Uey4oYxOBgIuPIs8rO52o4nNyTwfEypgF+AzvslptHEs/UNzRdIaU5WOyGGsjyI2PluHhcBvLUI4IoiAvdklXFbNZx1DAIDplHgrsNc36+LjhjRT8WXeUkZeXdpclv7mi7M57Gry9OieYiKEtksF0Lkx0rMemyOmbqVSYg0Lm74CVJg3GpQdSOo27osAHFL+2mc+LgHsdCVbB4RDLubOUyp9Evi2xWZf4WsFFAiIM42DmvEl50M7wcFItbi18KvEBf+BDuUeb7SzoaFkunGoYyAbcsLtPHBJQAMOOAn0jtYDRsbgUvIk/7vGr3UbAqtonGcCiGXNzbIhkdGBmWrCAMVsOygxzhHnWGCgZC0yfs8BH7nMVyv3eeB3ZXkTPQQiBiZBRyxwkk8MPnZFyAJvQdP1t7Ck3QCIn36J5NRFOJspoKwEIAF9V2rPsiSmJQFbJJAAkAGm6NXyfEQt6RrjMGTJeMyDgbJM6ny1Bu2ScAOQbMl2YipJo+TBAOHAjLDj28BuN1HcA4SzzDUnExro2HUfY3zHBawCAGN04dQ7pCiOUZ0bM+RGhChp/uNhVweyCblVLVc8r8UwW1dYecmaTOTlcIKLmOxGUn5hrp7nWgYss2v2mvlKx0HIvk4rLhaxIGg6AxbNixA3awDknCiq5YQQWU9xx5Sh4OSWszqdRwHSQ7iUIazthxJ+z+8OtQl7qVEnUwsmqcYaXOtL9NW5GoCEEfcMdtbvYQK6jKcky4KsQF1YQmZIgktwvgWIXEHod8+lPOtwPsI1ZwReVYyGAXKwZMYaaTWg0GKfkDGirTmD4oUMvMaC8HuSgnew4FhdrcwRQlFQgo8ySDI2O2Y/qgQMUKsVY0d0oUqaOCQonvcSwSDAFWQdJ3BcaMp7NHeOCtFXXKQqCsylmu+JjaThE+nRCxwLIJ6vAFYMy5QF2L94j0nCBV6jK8TglgtyMhPdKow/xQCWNSkskfyj4m6bYaZ6IVqCizMJ4RH+g0zoSICkjMPwJxqOAJyXq5YqrUYbRHbehwmcanOkWqoFqCna1mQQT5X6jHoUWdokbAUVc9D5CSEwmRgMcYdVUIzPVljIn8CrEVLX2uqM1x1FX1DYZrYs0Cx8aJhrEAP/wtRhx46/DfWvv7qnamk6aHs5uNmSu+1JtES36eVOURBH2uFX1Aqz1PFsJkfKi2DVIoptDlVjTGdsH5SZzHBi1Iio5o7VGmeysikDrVRY0xblE/SccSrTCYovh55QIm54AW1DmTkO6T7Ecd6lExHIWrXOgh+q1LQTbyIAWyILFdx5CGlZDrFupyJs2lFYQxBtOFGUUmPuK1tgA4F0SUks7CgxBcrpLUlCqMCcV9yHJy/FGmgLKTFac65Q1pnWS4VJ8kTl2adZ/eMuQryv6TN1Zwkp8JCdJiTM+GCy9rP03ynMbpPkx5E8yupNpEc6KTouwitHjXQeNwKOw45UboPcXneEDX+M7A8uXUOZ5jAZkyLchwxms8ZcmmYfuT5yYaW9doX/GTl1Dn2AFYWkeJ6hz8r1BmS1njZe04Cc+hf6dBHT3bxHFzKb5LApFdtFPSCt4Rjfek2YmsHSfZc1opI1Xwg7gD8ChJKbeCiYl2SlqBN6LxHpLMkAk0VfImG+MeWvFEesCC24ZfiaOJu5fgofKxMAED3khTjtn6qUFxESANNGPBTmLy7Jg7CU48xE7EMmg8AkHmqH4fNzTy5s4xOrxIVx77HzHQgQw/SLdTAGQzHVKqVNNyMrZrhG4Cj+nuweDk0cIY2BBIMax5AokAGTVQr3jyVS0mRepweeqeGaaTh9JIpA6nrp6pDvhHyGaJqjEmbpOmAqxM/fMOTuxok0gdGmGgyWPFjEQc8caYYop6Cba4c6iz9TiCgZ6ZhMofwrpDAYrFwjLrrNLDMyEUdQJ+IFuPoRlvcAAOrU2oYSA4eDh1kNOXXRz0jB8BxYA7ckr2ESdMajE5BwUJBYVVpMD5MA6OLBph2aVaK4JOULQqMJsha6pRNhgdHcX0DqJSy5z1gAITKv2sC9m44J9S9BPAJck8jI1xcLMzbJi2FIXqXLY9GZ+6vJLRV7xcVTw87iukEUEahknGfJFREdmWMJihExObOkmwSERPMGf0vp3h2qBcNawGRU/Sh9zPFkJpInQ6veYpBdlAhy1mRbsCvpdRdwhZy7ROAs3KsqjI3PE4HqS8ybGfGVh5hIIya6JvnGqG4OyaH0enxrTP1gEegkUzRaFQO2SuDLAJFWDnH9M6j+pAP18egTI38DyWCgldXiuuuhBHBqyJsauUyUONaFhSKAJmuE+AMRcljEpgWTulsuQtA9ZECzll5WGkeJ+KRzhCNVwFtJTTnZquE4YC5I9iGjE6/xOpTASps1/ZHEc4y3HioRjFAteKt3cIrKmo0HGBS4UiBkL0TzoIrYz4Tm6cldDdeNn1VAisqbpUYK++UJNQgKO8ZxEIj8tEDjxc6lh4XfUSho4gNRU1FB7slSw9DDfuW52EurGFsEQ3+A24LyImcGSBPA/JHarWBT218xGv7Y0iZ+8qalVaFrriIKV4k4b6HRNwFwwcCFAd8SotlVgWkzDQGNz/zG8V0/Y2cNCJlpWXB9elqAtvqGbmMMapCOXH0YiSH5fTAq3POcaEa7jbSdwXCSqZN0AQWxP2KZU3FMpMqC24IyXo+3zFUftq7CwcXnyDNlhQn7aID/fcSI1rNgUNovxtf0VbqK3oMWUwoL/mMLonKD0UKcvCab0znS8hXouIZ+QAwBmE+JK6mnIZeYXau+2UbcawhjU547B58ZFxZ12EB7maaPMqT2PUuQLPhfC2j9FlFSuSf1ENiGNWv5+7zCIVUgMGgkeQOqAcLbDvk03B1TjBf66vUE0+H+6GNp1PXErcnfwE7qBq9brjT2lbpI3Fdvb+6eyr8iznc4i8qXT5nNRAA5UHToVa1hgrL5uKk43ONR5JuF3OGjt7SBKDl+dVzvAeQBlv9gTKH1WUAisNfL1Mt9drn3vUU/NiCqF+3sBrgPrL8GpO/kcQOVLBCXIFOqxi/9JTuOHIZNyaNjImz3uUNhgEcp4RVpeIgUC5gp1BNRHGFltnKWb7vWH1/bgqz4MQIZJSjr/l1kin44oaNsK6NU+mbOXWZpVD9O8UcJZBHRg5YGzm1WtlKyJ+qyeNdrDr67ZGNSwp5xdmK2eiQN00g7pAZ/JoweNC/GJYtPZqn573gl6ESVFjGtFceK5dLFuvaQIay0CgWJE/BUoBOCtzvJmBGbeNMHekZtvhRThY/9LAKsOklCF4x767il1rFtQ+Fpv7/5CLYP2nxAHh1+f88WYmSvyqZGw6IEIX9xlNLiiAjTpu1+3Yd9zPl81k+P4+Wb10rbCEklekZjZEOdOcdvF+iPQwOq0DUIhfy0tvHML7EnCf0cDohOpCMZPeOg7v4SvZ5Fo9y2NmGsZb0qKcKNrhz1Rr08fldBsjjt7DNsEu4UDo37+gsAVqVbkrkvByyfQANUwe6LwgrToZNhk32amVwNVW90wL/sVTcCS0XXKlQuh9rukBapw8mAL5TSr0HpeeQNoNc435oCG4svrU0TMPctJKnlBQid4SnHUFLAgJtLNlexwOhmk5Lb4WLo6vWNxwQ4qmfo1Uevo0MXdW2d05DrzPXqG3DN9lEEd7DJ0NkhYi0wVEiz+3bmMWtHDLFFbq0C/mjtS9V6tueSdDLGsnScp+1XHvJ1uxuNOAjXP2/aEgeDDkFK/kwOmCSP42k76BcEMYdaz1Y+42lYbj1/fVaHQ/ellNhrOPRNWqCqdy8+LT8BgqjYVInlVEkR/ysOzC4hl/1Zhl41jqnYALUXqXtC7BFaPtb27wHWcZRc+ElywWveluJ6IuJJbRY7cqPE5tC/2K276Sg8AuGZZ3KA68wxj/fmezZ6FhFY5BP/HmybBYFU5J+Mxw0qcuURkqiYpwrbfShdmoFfDKvx1zQpdLRd5dFfVKbbu5dEQKSpfcEtHX5k5OJbZgcMPTJrlDWQqcbGqvnXSdsmWXPSotQ8n6wF4YL1ZFL3FTqLfiGzWgLqPoXXB9Jd40f7TMuWyZAXmTCY2PyWg0ZGwWhjZwW3c2cqt+Ui26RTFooFbrQaAOiq83buus58Hp9Vmz0T+KQ+OyeKqmUwLzEfUYvXjsJq8stp1iXCQYlOInL4J90b+4uEgSBUgJsKeAXuUuvaMeppYKqPAq7KpfihSudVz2HXvFzVtgSB0a0es0kiielJkSQGVR0lcKLiQ/BePZcDW673ZHL++z2LYGUKcbWjmGZZs6YdgNXdoKnFPajilIzi3Iz9GKHjekDnMYM0nLCDNmglk3PFOfCkI4v+lwkAypEwt4y9AaqG8ux8Hxe6sTNVMZxGMojezmSQDOkDqxgHcM63la6FQVwjQ93N1JP9NM53qM6xtSBwcYyUpYtu/6b/27i3Xj6fysbrDSkojHTDhwIcwbKX/UqTdpSh1kFhDTwpwF0zGIE4U4E4OY/db0mo1npT4VdqIMqXP4If4G4kTPiSESo0k19Nxfr9cXyT0oM+os/jaOP6k93A+dxHJ7A0nZTJCRAjPqMGYUmZOZ4YS9cC2w2ZIpuV5bTk0KdbrV5sAzj5pQyjI1Reeq0X57u7hpdsTV3YlvIWRQp2tFwxEEsrexjPfoZ9B7Sqeqfx7w1Gl6QELx9V+irhDu9cpEz/o8DCdF/yTzrevfge9K7HnVTMzvwWln+nTT7j/8fX7rrxvNM+GuY6BO94QhUXcklK8UU/hxRF0jmlCXOjiJQiSzeirmT+KBUacZ8RPUnaZ3+lOIfDNi7mpGay1e3enkYv4g2ow6zUi7zas7najJD2LNqNPcJREvF1bxk38eka4gAlSTOlB34N0pnRn5cdywrmke7RW8O+Xc/J9Fg7GVJnVw2CErAeXX8cSoUy/eEgFqMmWlRv065kzg6d1XjMnHJPrxfQ7QXogsDZOL2nDPnAQzs4+U/xqmTBXrXWUmXj6VWevg9xCF/EgJDb30fTgLCpttiQKEh4EBZyRqHaKEsjPXh6zMSe/AfdGiTvB/VE8R/jR6nOupQ5zo/3xLNPMLcMqFDXTOnaNCEOqHHB44baWT5IeJOHcHEHfIQNg5SPfUKWYhKoSMukW/iztmR+kENMXbCA9UZIKDp1UzOoIjeAhfsuXzHWiZOXiQ7kA8hO/aRNgf0f47yRfUcBJQZJLt7cMM94WIjBWSF6JxRwEGVUggX5p3cRDocTJP3dDEiiOH7JiHCDjWUq8bANuu5CB1MtnucBDGa2F/SvkGBozUkqSZw4xDEzSYwlOOtaMuXx9wPIxgylaOstCEMyTBIcdUCHossqJaEw4PNw0OnjGJ3AOxorhBidWalofs2wFajLvUNB7m9pEUqm/dMd8fHY41ldwEPG9KPNfD3B9hCPsIebgqk1cdcu8d/f21biuCM6QLm9yV52PBHTJ1h7lxx6HDuddBHnUunuOtHL46IOBFX+LgTWzN0cMx639i1RVgqwQzToYZtnTJpunU039BYEboCeGD95TZs3yHnfu5PnTvgENbWEKvsqoWYYo/i1rCjuuBBthjICYV3cg5uRerkhz7njXhL2iGElJqVfp+H/3YVHys/Oj8gl1yq07xZSEeIodyBn8PNAKdAMS2+JMp49lwMpkMX5NnBfGswD+x6CKk30gUB01WPmS3LgbV0nvX7X+QODYl8ZMpAs5YlvK/w5YRaJbqPEVYdLiCEet/RaBQsLMbTwmu602Fkx3/hp4TwRPQwgODp/VBM5aam8m8h4uMFGqGt4Pd8MnDWS5t7X+Wth0qN5m0zQ87QpSPeto5z/78n9JwaejN4yWsju6eBv+mJJHidNBstB/+Hj2/rRvN2/rXK7f/AREaECqxGAxtAAAAAElFTkSuQmCC;" vertex="1" parent="1">
          <mxGeometry x="-197.75" y="480" width="55.5" height="57.26" as="geometry" />
        </mxCell>
        <mxCell id="6NeYQy5s_Fg0ChDHObrt-28" value="" style="endArrow=classic;html=1;rounded=0;exitX=0.5;exitY=1;exitDx=0;exitDy=0;strokeColor=#FF3333;" edge="1" parent="1" source="6NeYQy5s_Fg0ChDHObrt-25">
          <mxGeometry width="50" height="50" relative="1" as="geometry">
            <mxPoint x="180" y="320" as="sourcePoint" />
            <mxPoint x="-210" y="470" as="targetPoint" />
          </mxGeometry>
        </mxCell>
        <mxCell id="6NeYQy5s_Fg0ChDHObrt-29" value="Get data" style="text;html=1;align=center;verticalAlign=middle;whiteSpace=wrap;rounded=0;" vertex="1" parent="1">
          <mxGeometry x="-280" y="420" width="60" height="30" as="geometry" />
        </mxCell>
        <mxCell id="6NeYQy5s_Fg0ChDHObrt-30" value="" style="endArrow=classic;html=1;rounded=0;entryX=-0.007;entryY=0.591;entryDx=0;entryDy=0;entryPerimeter=0;strokeColor=#FF0000;" edge="1" parent="1" target="6NeYQy5s_Fg0ChDHObrt-18">
          <mxGeometry width="50" height="50" relative="1" as="geometry">
            <mxPoint x="-210" y="540" as="sourcePoint" />
            <mxPoint x="-147.75" y="560" as="targetPoint" />
            <Array as="points">
              <mxPoint x="-210" y="591" />
            </Array>
          </mxGeometry>
        </mxCell>
        <mxCell id="6NeYQy5s_Fg0ChDHObrt-31" value="" style="endArrow=classic;html=1;rounded=0;exitX=1;exitY=0.5;exitDx=0;exitDy=0;" edge="1" parent="1" source="6NeYQy5s_Fg0ChDHObrt-25" target="6NeYQy5s_Fg0ChDHObrt-22">
          <mxGeometry width="50" height="50" relative="1" as="geometry">
            <mxPoint x="180" y="320" as="sourcePoint" />
            <mxPoint x="230" y="270" as="targetPoint" />
          </mxGeometry>
        </mxCell>
        <mxCell id="6NeYQy5s_Fg0ChDHObrt-32" value="" style="endArrow=classic;html=1;rounded=0;exitX=0.429;exitY=0;exitDx=0;exitDy=0;exitPerimeter=0;entryX=0.5;entryY=1;entryDx=0;entryDy=0;strokeColor=#FF0000;" edge="1" parent="1" source="6NeYQy5s_Fg0ChDHObrt-18" target="6NeYQy5s_Fg0ChDHObrt-22">
          <mxGeometry width="50" height="50" relative="1" as="geometry">
            <mxPoint x="180" y="320" as="sourcePoint" />
            <mxPoint x="230" y="270" as="targetPoint" />
          </mxGeometry>
        </mxCell>
        <mxCell id="6NeYQy5s_Fg0ChDHObrt-33" value="Get data,&amp;nbsp;&lt;br&gt;config" style="text;html=1;align=center;verticalAlign=middle;whiteSpace=wrap;rounded=0;" vertex="1" parent="1">
          <mxGeometry x="30" y="440" width="60" height="30" as="geometry" />
        </mxCell>
        <mxCell id="6NeYQy5s_Fg0ChDHObrt-34" value="Data Drift" style="rounded=1;whiteSpace=wrap;html=1;" vertex="1" parent="1">
          <mxGeometry x="150" y="350" width="120" height="60" as="geometry" />
        </mxCell>
        <mxCell id="6NeYQy5s_Fg0ChDHObrt-35" value="" style="endArrow=classic;html=1;rounded=0;exitX=1;exitY=0.5;exitDx=0;exitDy=0;entryX=0;entryY=0.5;entryDx=0;entryDy=0;" edge="1" parent="1" source="6NeYQy5s_Fg0ChDHObrt-22" target="6NeYQy5s_Fg0ChDHObrt-34">
          <mxGeometry width="50" height="50" relative="1" as="geometry">
            <mxPoint x="180" y="320" as="sourcePoint" />
            <mxPoint x="230" y="270" as="targetPoint" />
          </mxGeometry>
        </mxCell>
        <mxCell id="6NeYQy5s_Fg0ChDHObrt-36" value="" style="shape=actor;whiteSpace=wrap;html=1;" vertex="1" parent="1">
          <mxGeometry x="350" y="350" width="40" height="60" as="geometry" />
        </mxCell>
        <mxCell id="6NeYQy5s_Fg0ChDHObrt-37" value="" style="endArrow=classic;html=1;rounded=0;exitX=1;exitY=0.5;exitDx=0;exitDy=0;" edge="1" parent="1" source="6NeYQy5s_Fg0ChDHObrt-34">
          <mxGeometry width="50" height="50" relative="1" as="geometry">
            <mxPoint x="180" y="320" as="sourcePoint" />
            <mxPoint x="340" y="380" as="targetPoint" />
          </mxGeometry>
        </mxCell>
        <mxCell id="6NeYQy5s_Fg0ChDHObrt-40" value="Crawl Data" style="rounded=1;whiteSpace=wrap;html=1;" vertex="1" parent="1">
          <mxGeometry x="-270" y="750" width="120" height="60" as="geometry" />
        </mxCell>
        <mxCell id="6NeYQy5s_Fg0ChDHObrt-42" value="Active Learning" style="rounded=1;whiteSpace=wrap;html=1;" vertex="1" parent="1">
          <mxGeometry x="-80" y="750" width="120" height="60" as="geometry" />
        </mxCell>
        <mxCell id="6NeYQy5s_Fg0ChDHObrt-43" value="" style="endArrow=classic;html=1;rounded=0;exitX=1;exitY=0.5;exitDx=0;exitDy=0;entryX=0;entryY=0.5;entryDx=0;entryDy=0;" edge="1" parent="1" source="6NeYQy5s_Fg0ChDHObrt-40" target="6NeYQy5s_Fg0ChDHObrt-42">
          <mxGeometry width="50" height="50" relative="1" as="geometry">
            <mxPoint x="90" y="720" as="sourcePoint" />
            <mxPoint x="140" y="670" as="targetPoint" />
          </mxGeometry>
        </mxCell>
        <mxCell id="6NeYQy5s_Fg0ChDHObrt-44" value="Auto Label" style="rounded=1;whiteSpace=wrap;html=1;" vertex="1" parent="1">
          <mxGeometry x="100" y="750" width="120" height="60" as="geometry" />
        </mxCell>
        <mxCell id="6NeYQy5s_Fg0ChDHObrt-45" value="" style="endArrow=classic;html=1;rounded=0;exitX=1;exitY=0.5;exitDx=0;exitDy=0;entryX=0;entryY=0.5;entryDx=0;entryDy=0;" edge="1" parent="1" source="6NeYQy5s_Fg0ChDHObrt-42" target="6NeYQy5s_Fg0ChDHObrt-44">
          <mxGeometry width="50" height="50" relative="1" as="geometry">
            <mxPoint x="90" y="490" as="sourcePoint" />
            <mxPoint x="140" y="440" as="targetPoint" />
          </mxGeometry>
        </mxCell>
        <mxCell id="6NeYQy5s_Fg0ChDHObrt-46" value="" style="endArrow=classic;html=1;rounded=0;exitX=0.5;exitY=0;exitDx=0;exitDy=0;entryX=0.5;entryY=1;entryDx=0;entryDy=0;entryPerimeter=0;strokeColor=#3333FF;" edge="1" parent="1" source="6NeYQy5s_Fg0ChDHObrt-44" target="6NeYQy5s_Fg0ChDHObrt-18">
          <mxGeometry width="50" height="50" relative="1" as="geometry">
            <mxPoint x="90" y="490" as="sourcePoint" />
            <mxPoint x="140" y="440" as="targetPoint" />
            <Array as="points">
              <mxPoint x="160" y="690" />
              <mxPoint x="30" y="690" />
            </Array>
          </mxGeometry>
        </mxCell>
        <mxCell id="6NeYQy5s_Fg0ChDHObrt-48" value="" style="shape=image;verticalLabelPosition=bottom;labelBackgroundColor=default;verticalAlign=top;aspect=fixed;imageAspect=0;image=data:image/png,iVBORw0KGgoAAAANSUhEUgAAAOEAAADhCAMAAAAJbSJIAAAAhFBMVEX///8AAADg4OCzs7P5+fn8/Pyjo6O5ubns7Oz39/c0NDTa2tpoaGhvb2+hoaHk5OR4eHjQ0NBkZGQvLy9GRkbp6emYmJhBQUGpqanx8fEaGhp1dXVKSkrb29uHh4cgICBXV1fAwMCFhYUNDQ06OjooKCgcHBxbW1uPj4/IyMhSUlKZmZkBJV0QAAAIkElEQVR4nO2c2XqqMBCAEVlFxQ0FRa1bq/b93++YSWTNYLUE7Pnmv6kStRkymS0hmkYQBEEQBEEQBEEQBEEQBEEQBEEQBEEQBEEQBEEQBEEQBEEQBEEQBEEQBEEowtDHtnUerVar0Xloj3Wj7Q7VSmRvZttOnm282Tltd6we9Hmvg9Gb621377c4Fi4eZ2r95ZH0RpJhK18aeW139EW8fkaK2QL+fHiG9wGvFrNMa/8vyuik43dY2Y4bs1cTZkGNCXsZR053dUjH8c/pqpX0fXAxb+9DmHMRtLlT9ia8vTIug+RzVqv9fRZ9Ibr9OeR+L1qyd2PRPGZvli68NobLuyL7LfX2Bbp3Oxma4goM4SD5wOA+iAwznIrPdzO/YbqR4+ve2PM8PYhcU3sjDDEDD0M3uQYyBMlbH+RP3rpDMSFHtxF39Eu4WX0tciHCZ9w/2+8SBzlXYR9TgbhaDjIfGmSV9kYg5uOsP/vsoBxHlzcYS12onJ29CP3PegSvKLLfxwXL0rPalnHN9S0OshcNdmmR+xyYIqF167B/qBCqwDJ37xpnzXuxz1+12bW8N7D4OJt+KBu8w7b3MTpbXdveXXZ2Nzyv4sy0XDUoUBGdd2FYuAxC5EZVC9il62Zalu72dV3m/v3d5ig+8NWapjq8w93CZYN5vGu+V2ZcEmzRH4JT6Rwj5PfNsTBIIyXdf4zBrWhpnoAlnWevrL/j/My7nncBm5Wgz50YdwsejyV29ff+J4ykI6hpQ3Y5taT6/JiTLp6PU8fZfTRGBqh83IqedqVz8AZLJqZCiELCON0XPdwQuU0JJoziGP+AMiBOKVpRRnS6XZ/AK/srP/VOJXU0hSZUxKgX1n6ur+M/BvK9WNIA3j3UjHE2Hz6tRnndLfzQDP9HJjNcA7xdFTxdCiQtoL22tUjFW64uEbc/Mm0ER1KVTDE9/6in108QyM0oo1jKGOzAGzhLzKTY6M3iMAm/aun1M4AYfWnTR85wdhO7eUSHol9tT1vRUphrB9lt9/eZyfed/QTz3lupcw8O2BxN/lfjlqaPOIpxGnUeBgULb+E28xvXCE07t+Et4LZO3cJVc3dN5JuFpQHe4T3llRz5ILrM+ZywwE4VI+4QcpjdTOhiS2KQdYXJDPGZCEMvcbtKicAF5IRIiy+ALMiCrHEj/0UTMn1ZihFtq+aoKqzSEFr3AlrnyEZyK/3atmKyhdgAVxhthUCoGXYThungTWwmYc/ulrHZ13qSBgZI2Cv/K5i8VTGdEvSOKkorUzywaNxVzJVJ+F34TyYYL8nQKubRAtrrFGXh3nXdtICRMgE7nbzb4+FRRe6oCF5J830vWWX5Gut3fDAZtq+X8eGLoayJtYpqXAYIZhp3hTc2/GbvTkK+ay5OgdxJbvv8yhEBo5J1l1zAST2dfgqWsc7WEyHfsZBBWWVluwPqjeaBBksoM4kwFzAuhoYNYDDHfRKls0NYrEuAoZXXjUzWNJc2MSD3SH6OZ5looVElWW+4L3cAbj3yVdaE+za4N8Ij8grbfYm1YcaJfLHMjO8fSIgbjh1r5nPa4Yv+vVYE5BEkU1C5zRg9kBBP5b3EmIrlnmsLc/A2l85CwAFyf9lsOiBfZh3HyxH+3RCZfFVm0soCqS6WH3oX7BNsAslTC01j/gVPE6BUxaZp1JYf1NIF+xNeGGNe5IS0JaViKVBJBiVeVHkVlZhJnbCHKxCTEAuVe5USuqwZ1gqdTbHG0wxBWuM9qpDQOHbaXQ29cOG2kOHiVu4XEvbalVBseooD5vAqSl91zMNWEHXevQlByxLflVaDLW0DQ8TZzMlDUQYvnKx+7w9bwOWV3gPU9CDLw6t7dcQ0jRPxUu+MTz6IS/F19Vri0oaJprkgCnILPAeqJ7doFDGCiXZBfojPprryw+bgm32zt55lNgt0b8TrOT67kxWL3cqYFAXkMw11Fy/XaZyWwu19ScB7rQ0pmdVYa2sEnu7m76zTUUfj+9v51sNioCXdflcLLdXvj0Wrom7dAje0iuAVi1K2q27tqekVCr6vSxK+FNcPc7DGqXT9kGn3s+uHakG3uYDZwxwbOG5pS1WoABJKNncoBcyMdAMMWNNPxOmDf5GFJrCOjzg82LuGBArqgK6G0ibZXow7FjahvIqRr9iLoQ5IuU/ycoV8Pw3ngkxebcca5FXIqv006oAsCcsEsD1RWkUiW7EnCrLqxjdcnKtuK9/XJo1AIsygvLqvTRmsQ0u0dYXfdVYQOEqus9zhKv0GaETzVbavSgf1YH+ppFT1+v5SVXxUu+AHe4TL1YjX9wirArS04iEAqIDLMlbEK1jYXIO1woWkQTVn3LgDPKaTqF0kL/xCqVhiaPhiSBv1GRgKvFpxzx0fPG+RAC5PYmj4njgkelCLCdrTrxARe2bmW6aPcMOKu7p+8MyMSiAG6czwCqYRyw1q+bknTSSVpd96+NyTWsRy4WCMjeMzz64xL7ksqi4fwWlrz+ab92d6jpudPNp68vnDYoQg9qW2eRpIej5AZxuvzmHX3t2wu9Z5NIQx8njjj58hzSF0pN0TJOxlB4P7AyHiw+eAoXCem27B7B0EZEcgoLtJ+aR64lnunJJyG9OZvsGBNeZldJQJeD9AwBEbULLP40OOWPk8vnjy5PomB4AYur3px4VDD5I0Hj1TIbVOQfaWFM5UeB9M1wl0zxuPPd13opzdv28Ee/ZcjFYimdfw07NNuOjuZ1Yts2ebuMP7MRGLN5iCT5A+cpE9n0YIBWMGO9b+7Pk0N4JV0nd2xlBUOmPIdexR+sj6qvmE9/dIz4laG+v/5Zwoxv9+1hfjB+e1DdvZ+Fsj//mZexxHdm7ibG+/SQBTE9mzL63/7uxLgiAIgiAIgiAIgiAIgiAIgiAIgiAIgiAIgiAIgiAIgiAIgiAIgiAIgiCIt+IfECRpzRrw3yAAAAAASUVORK5CYII=;" vertex="1" parent="1">
          <mxGeometry x="-252.5" y="870" width="85" height="85" as="geometry" />
        </mxCell>
        <mxCell id="6NeYQy5s_Fg0ChDHObrt-50" value="" style="endArrow=classic;html=1;rounded=0;exitX=0.564;exitY=1.045;exitDx=0;exitDy=0;exitPerimeter=0;entryX=0.59;entryY=0;entryDx=0;entryDy=0;entryPerimeter=0;strokeColor=#FF3333;" edge="1" parent="1">
          <mxGeometry width="50" height="50" relative="1" as="geometry">
            <mxPoint x="-210.08999999999995" y="812.7000000000003" as="sourcePoint" />
            <mxPoint x="-210.11999999999992" y="870" as="targetPoint" />
          </mxGeometry>
        </mxCell>
        <mxCell id="6NeYQy5s_Fg0ChDHObrt-51" value="" style="endArrow=classic;html=1;rounded=0;entryX=0.5;entryY=1;entryDx=0;entryDy=0;strokeColor=#FF0000;" edge="1" parent="1" target="6NeYQy5s_Fg0ChDHObrt-42">
          <mxGeometry width="50" height="50" relative="1" as="geometry">
            <mxPoint x="-160" y="910" as="sourcePoint" />
            <mxPoint x="-40" y="800" as="targetPoint" />
            <Array as="points">
              <mxPoint x="-20" y="910" />
            </Array>
          </mxGeometry>
        </mxCell>
        <mxCell id="6NeYQy5s_Fg0ChDHObrt-54" value="" style="shape=image;verticalLabelPosition=bottom;labelBackgroundColor=default;verticalAlign=top;aspect=fixed;imageAspect=0;image=data:image/png,iVBORw0KGgoAAAANSUhEUgAAAWkAAACLCAMAAACUXphBAAABtlBMVEX///8Ax9QArUbkOSEBfO5RUE8R4e4E1ln/dVcMtv9OTUxKSUhCQUBGRURLSkn4+Pirq6re3t6IiIeSkpFhYF9ra2p0c3LX19e/v7+zs7MAcu0Au//z8/MAee4Aytg+PTwAde3q6urNzc19fXwAs/8AqTniJACfn55ZWFe9vb0ApzL/cVGhoaBwb24E2k4Dx1LjMRTsLgD0/P8GlPQBukzqbF741NBk1+DnU0B12+Pukoi87fHxqKDtTzX/8O374t9sra4JpvoInfetz/htqvMEtWbm8v1syIpGvW7H3/oUsVDo9+7a8uObxPfoWUnoYlPreGzvmI/0trCf5evyrab2xsHshHj52dX4pJbvSSn/oI3vVDnK8fT/k37/g2mdcYx6h6+IgKOxYnI7pOHQRjyxlYqia4F6qai9V1zIi3rWQC9Iw/8+usFjksJrzf/XhG8EifF8x/u4koaUUlWNQDajPjONo583cY5kTEgTcNRMQjQGmaMvhowGjchNNzRMQEgBi9gDwIMWmUUDuZECqawDzGsP2tkBmcQBn7t6sPQP3N4LzLB25ZlgxYKK6Kqm7b6+8tCM06QfDijPAAAS+UlEQVR4nO2djX/bRhnHlRelqaST/P4WO4rtJnGapPMS6LrStLRbuy7t1m605WUw9gZjA0bGO4zBSsdgg0H7H3P33OnlTif7JDu2W/X34UMjS5bkrx797rnnTpqmPdWkdPfcuVdfvXXrm7dv37t3/rULd16/e/fspUsXncmexd5z35nsAaeg2xv9sDao+v2Dc7duv3bn7tmLkziJvdW5ub1JHGiautTvL8jlcV+4de/C3UvHGeQE9JNPegDqADmJ8lfv3TmmAAfQGSCtXVwYhtrn3T93/u74aQPoLJBWRe3hPjh/dqxWQkHPjXOXM6sEqAH3Rv/23bHBZqCzQVq7eJAINcC+992xHPq5uUyR1pxzCVET2OdeH/3APujV0ff1eCgF6oWFjYULI5qIDzo7pNOhXtjo3xnloAHoDJHWtFtpUC9sHJxNfcQQ6EyRTol6YeNeSgsJg84W6bSo+wep0hAO9Nxz4/4xs61vbqRCvbCRIgvhQWeNtHY7LeoLSY/0/Fy2SadHfT7ZcUTQc88fz++ZYaVG/VqSo0RAZ5C0di8t6u+pHyMKeu7JH3OJ6nxa1D9QPYIEdCZJp0b9fUXUMtBz3zre3zSjSot6Wwn1d2SgM0paey0d6jdUUMtBz/3w+H/VTOpCOtTL2z8atucY0JklnRL19lDUcaAzMYwoVyrUB8tDUMeCzjBp7U4a1MuDUceDjh/c2ioUttKcf8fQ82m+NwW9ngL1NkH9ZlwVdQDo2KJp0zJNt5ni9OvIqqX42lSUAjUhHYv6W/Gg4wtMdaTrqJ7i7OsIPTaktbuJUb+xHI96EOh40mVD141SipN/rEgnR01JS1EPBB1bYMq7drFoW2HHdfLVdrDU5Ja0djXPrIaSjls7c0qK+mDZQy1OKhsMOrbsUTStatUyN+lS3bLbRWRZVo+Fa76CFyybrdZyOlksd2BbTLpu4EXd855OCS+hyoy2k2eTofZIL28v86iHgI7tjNtGT9NKhk7vkR1k6AiTNg0X8HVcG9k6slEFVnctA69EhpvTwOB7bNsd+mXXtnS8vds5HlSjKhlqn7SA+odDQMd1EWsIYWo5ZFE6OVO3e7V8tYh0hF3B0Q1zy3HaFRvSjJxl9Grtdg7pbhVIe9u6JIyrrlGqOk7NNMwZdZDvJhnGDUhzqIeCjuu4VGxCtG3ZXVjEpA3AVDSJobQtF1ykSdfbBgJTriOzAKTptjumWcT/7Np0Lb54O8fFakRdSoA6RBrrEtvDcNAxHZc2ssEXcNACpZxp7rAVRhn/47CG1yRLecsu0MWeAaTZtk1Ecpcm8tfaaVKZiWj4XHZfbyxLUCuAjum45FimRk2EkLaqdE3P0OFfp1MvdksGId1Bft5NLkCQ5enE66uWXcxXsfJlw5zwUzzqUkctkN4mqBVAx6XTHk/NILCANMscKK5mgSQirqUT0vhyhLvtYdI6uQ666YJsI1WfczK6tNBf6D/77HDeAmmCWgV0TJJXtXS9BNJ1COYwadvR2oaJeoVcLW8okLb0XompfKywRtPFhf6P33r7nf4w2NvLIurq6nDOcUlewdZtE4T/IC4bdo8esW+T+gWi7mHm6Mp23omQxkn5rDaEvNrvrmCdfOvDZ5ORXt7+hQppaZKHm7Jegaln2E1oEWknJY+MCmnkaEpStaBFdNmi47qVCOkmbUPJbtsza9NYeysnQSsn3x4Y1hHQy9ubKkEtPaifPWgkVSPWgLM8BPbRtXET6XjwyuAeOM5pxBchrRNI46/Q2l7HdbvHB2pU7a2cOsm08u578X2ZAwnpnyiQlqceZcPyixZtCFuST5ubtXrZJDatdU2z28nXSia0iNqWq9ubnVoXwfdE0nnXMHP56ibuQs5u5SkEmuidWAcRG0TVmJbWl/KuWQmWdk3c08vhxNlCCNkm6QVq7R4ySaGjpJuQIm/izjlCpolIj7JuefVpwzTIPzXLJH1100pTg52MBNAnV34ch1pG+tsKpKWpR75crgZLnXI5D7lHrWwgvUBTEGezZ5qlHa1Ypvbd6ep4uQh3QpV8AVQoF+kOCz1/7UxKBI1Rvx2DOtogLr85nLP6wDjN8pxwi+YIzZu4nGTtlBUFjVG/JUedtkFUHa4N8uknUDLQcVEtaRCXVUJaee70E0365zLQGPVPJaijNr39vkpIK89+3LHc6vCtHk/FgMaofxbNq6OgP1DqISrPX6p2C7NbshhNsaCxPhRRfz9dc5iZB5kHaRDolXdF/4iYx/YvlEI6c4+4RDUItCQBEXM8RdDZnKTOaTBojPodzj9E81DqsxBleEoe1TDQWIPMQxl0tp6ulUgB9Movn401D1XreGoeHw0HzfsH123ZflMZ9LTMow2jilWaNZK/ptRR90CvwABArN7tS0N6+1dzyqCnknl0Cj0yAknmPxHUu65lubvTOBEK+tTlK/v7R1j7+1cux3QVg155GLRKTdrTGB4l2oHRQfVZ1tWSZRs6FQweWPDXNIL6o5MnL+8vtlqtxdYiVgv+XDy6cvmkGN8r7/XF9nB7WbUtJFJqD5ubRaKcfG3bNYgs1V9Xcz3MHmlE/kJTIP3RKYJ5URTBfXRFqFV7jaJvHtsfqDvHnGJ7uItg3NbdlK5tQ0gqk8q7ekjuNEl/tB+lHMK9uH85jJrWPw5SBfScWnuYtxgWWwojIekSjWgEeHUY1pkS6Y8l4SzQDsOmnXIW0tu/ThTQig/mF03vVpeOACYj3YGtDX0rNPYyHdIfN4ZwZrCvnFoJBTVLOdRzuwQh7eierxoV2Xrq07arRqpgw93BjXFNhfQrSqDBRo4us6Du99+AHPr91aSglVy65pkHdlXpIODOLpFi7tEjlw3xjes0SCuDZoGNk5GV3/z2d8Sgf5/QOOZUO+JdGoXk/0afh9SkVPkrNgXSLyQBDaz3T/3BQuiPb24m56w4BEBt2MwRHHQi5Chips5TnTzplxOCJqz/9Gecf1mfpOCs+J6anEkdGtzaGvXRCchjxIfBJk5672hY1iERkEZ/SUFasYgHxoqzjk1C3JtunlqzQfrFteQh3fiU9Cr++nmKkL6hdFJVi2XSNKtGIw4kzgTp5N6BOV89c4j+9rdPlpYSB7XiOC1kZfCkShmyhhHneklJm3GknXynXq9vdcY87ympd7Qan90/c+LEifm/z3+1RJQItmJZugkUYJpHHUkgEbV3y+VyNwj2PFmmNlPNFSp4YTdPJo2BaG5e5mRISTfrFZPMAiTP2uldvtNUJV8T6zBOQfJhs+ufjKdXEnpH4+gB4Xzimfn59ftLSwlZq9b/Q3ibYB9udG5NEZECU/ATC2SZzCitlSxkk24N6modWodinSCDk7SPmTNRqBJl+0+bhg4hTD4pWrIPI1vuJeO8tvb5GQB9Yh5r/aulpUSwlQdawpYRGInwY0xIAwMMZDu0pXX9op3dZb3wAeJJt0tIWG9Y3WALCABTqHhBdiR+SHtK4dYlUUhjg/4H5UxCOhTUwHoo7FVl0LTwxk60I8uFY0nXCgGrxKTzphf85NkP9rdZ9jdpS+yeNtlCyk/bBa6KkCigWw8Y5xMnvjEPqL9YWlKFvbqkPnQIEG1vEn9PnlJLSRtlM7AJ7B55FyyXFasQpwjpNoOLrN1ibqdYskyG2t8CKoJ8V3OHbsRPHYTg55rxJCHd+PQZHzSYByZ9dUlUDO3VpQSgNfjBPlv4LXakzCQlTW9l1CtXiPCvz2/VsKAfpPdqnGyRdJnuwayzz9pFVi/0rQtOhU+EWDmWrxhUIldEPfFoNT4POFPzwDr9RQQ10OZwr66SDxOArkF7qHuLbYg+S8y55KTxF9FmJD1TyvLqNIcvhb7doQHrN22Q5tvhJ2a8Kjq382YkX1LPpdcW74dAs5DGOpSRlinJu2IrNt/G7EoKcbGkDV2SBiv1XKjv9LhOEqtr++O69J4J3Qc5v4oesg8IFS7KX1QN6cZnJ8Kgn/FJrz8YP+hIDNekZaYY0rasv6FCeoseVkjXNk0OIxw03GaAeYiRAKcSRq+c4jX+GebstYeyRnEMoDVavwtND3CkDOSkI6EPUiENd05k1IH2ofz4hBgPpZxtaifkZUahZ3jBuo3QXl5QbA8bn/CgA/PAijaKI4JmuWi4xF+UlZnkpOWv8VAgzUrYkZG0Ik1pwl8KmhBIMowS8A5uwqpwOZTNg2sLefMgQf3vMYOmxSXuzQW02REgyrM8+UwZBdL0sFbkQnVgM3/UuMsbA+li4YAnHhKkJDuixeylBB02DxX/SPjidCAmBHApEuYxpO1oX5JIgfRWzJgDazU8trSx845KgzkPbIO4L4nNplrm0fiXCJozj+H5R0LQTZkpU+vm32YgJS3ptRMpkPaGHkQ5Bnc+Te5MqHmw/Xv5M1wbLhX8UsWm1z6NgH5GIM11ykcFzYpLQmw1+cACjZn0pinyYaLNhu8FXKeELEA6CvbB7jm4O7gb8EgBdOtI5CyaB+m/DLDqxFMdy9LkuSuk2NrYSUtbXSLqXH5LSTvadBESEwh3cp28GwLONdxBvKZiHo37kZAWzWOgVScGzcZYxKSY9iDs8EeTJe2HKM3r6HbEtOntR9MNaE4dPlnR1HK8tahJR8xjEOrkk3eLMTcx9Eq4MtOxkJZ8XWyNaV8Fvkailx2R9F5opENQcDelQo7XWox6R9Q8QF9JScfxjBdN+ksVUT1dvAJTcg+WwxHLcPy/6Nfp6dFuZLhJUagurUUSvFjShzLUqngDsZlLRkTwMecqkyLdE0hToyBNBq0ShD6FnZHtuRb9mkI2vfYPSUxLQWNFDUSZb6BKaGhJovBNOaHcw4n4lu4lRwU7dEBiH2QrGMXg2m6FbLr1mSSkZTYtR62MN1B7yBBJGNaYSdclKTtRNL+HA5O5gii8AuyjwFJ/rjugMAggaw8HkBb65ep8A7EaZNQ8PP8I/YQxk6a9biMyiFaNJEO0yavDv0EJhNaeWJaqh/eg0CBKScttGnT6/oigqScavd1yVLtAOkRyzKTp7RR9vwXtO4Z912FFP8486CxkqwO3AG/3Cg2i1D3iQeOonvfDOtVTcKzKI5+FlxPGSMZMml5lcYybpR48Ouia2M2ewZ1rEcDDrYHCv0CpvNR4oNJv4Vgf/pskIV88kv7gYaLluJiZpW06YO4ntuMmTZ9BEN9+SrtM/GMJkHPYtJzqcFsapS5cr3BFUKWH2Dq69p9h5aUo6/XDq4frp1+S4xoo2viY0lq+xvKSoM0aN2k69cHk8zynZ0Ttm56nWHKkfcPocIJCD7G1eE3TRNTxDaIAPAXqunxo1hMLL2/1uEnT4Uuh5FIxo5+x4ZmI0XlDxsLg+fDUA0BHUKuSnl//OgZYvErS8aVA/GyhsZNmw9xWIQhzNntE9LO6N3sHhT/1Z/HwsTI09WCgNe2/Z1KRTo46P6g9JNrk0oCxk9ZyFJWJ27V2s5mvda1IaknVZg838g2lw/gLxxn09CGAbl3zNv2vfFh87Khpk2TEb8BfivGT1ryZZiayEP4fcwM3+tRSj10CftSR2YfwWM6wiA5A86gTkJ5fvx5PLSra7Y2mWSGBP3o95mMgrRWsSDXAkID2pogJI5s1eqH4ebF7g1MP3zqoQqiTkE6GuhPTdQhpi87wpXCANBqVtPCE/paBONaGVZKdUBXsQ6yS0JxEcPXBSV5r7Rq/j/+dSUU6Eeq8S95JP/jdxQbZhqW8ddg+cPUcLMvfyNuE990LhboyeeuEOAXeyfXY7GvDMJFbjnnDb5ccLBIVm3AK/D0wuL7Uelncs486GelEqNvkzSaDN3GC16CQ/+ZTlfuvPpHluDuiKdm3E/MmlXyuUC71eqXd4lb88xf50IkEagunpA1Jp6OgA9QJSc+vX53l17dOQIPS6TUJ6AB1QtK4f672tNaTqi/jkzw5aE17eCYVaYw601Ed33GJA+2hTkw641Ed23FpxIJmqAfUp2OVZdRx1elBoCnqpE0iVXZRJ7YOqoep7CPLqGPmqDdeGPbFm+nsA+vmJH7X7Ek+BWE4aECdjvR6NlFfk6XTKqAJ6pRBnU3Uss64GmiCOh3pbKJ+ORrTqqAx6pRBnUnUUdKNV9S/feMwJerTD4/vJ82oIgWmJKAx6pSk59czh1oknQw0ier1p1GtJKGUlxS0pjnXn6JWEk86OWisr08/Ra0grmiaCrSm/e9pVCsoTLrxZcqd3LieLqwzhTpUnk4NGuvhfKq4Pp1ufuRjqYD0KKCxHqVinSHUPukRQWMLScU6O6ivMNKNF8ews4fXTyeGnRnUbHBrbRygsW4+OlxPCDsrqCnpcYEmwrCTRXaqueyPn4D0OEET3Xz49fpp9dhOM5f98RMhPW7QoJsPX8JGooY7E1F91Doe0KAbGPf1QxLeQ4BnIaqPWmtXjvkQmPcjAE6IxzDPAOr9xv6kDnXjJkb+6KWvr189PJzHyBl5qsNJncXUtDdkXsdxHfbGDQweoyd6hJXB4a6nOhb9Hw/uzcM58AFIAAAAAElFTkSuQmCC;" vertex="1" parent="1">
          <mxGeometry x="320" y="850" width="141" height="54.29" as="geometry" />
        </mxCell>
      </root>
    </mxGraphModel>
  </diagram>
</mxfile>
